<?xml version="1.0" encoding="utf-8"?>
<svg xmlns="http://www.w3.org/2000/svg" xmlns:xlink="http://www.w3.org/1999/xlink" style="margin: auto; display: block; shape-rendering: auto;" width="124px" height="124px" viewBox="0 0 100 100" preserveAspectRatio="xMidYMid">
  <g transform="rotate(0 50 50)">
    <rect x="48.5" y="11.5" rx="0" ry="0" width="3" height="9" fill="#fe718d">
      <animate attributeName="opacity" values="1;0" keyTimes="0;1" dur="1.282051282051282s" begin="-1.221001221001221s" repeatCount="indefinite"></animate>
    </rect>
  </g>
  <g transform="rotate(17.142857142857142 50 50)">
    <rect x="48.5" y="11.5" rx="0" ry="0" width="3" height="9" fill="#fe718d">
      <animate attributeName="opacity" values="1;0" keyTimes="0;1" dur="1.282051282051282s" begin="-1.15995115995116s" repeatCount="indefinite"></animate>
    </rect>
  </g>
  <g transform="rotate(34.285714285714285 50 50)">
    <rect x="48.5" y="11.5" rx="0" ry="0" width="3" height="9" fill="#fe718d">
      <animate attributeName="opacity" values="1;0" keyTimes="0;1" dur="1.282051282051282s" begin="-1.098901098901099s" repeatCount="indefinite"></animate>
    </rect>
  </g>
  <g transform="rotate(51.42857142857143 50 50)">
    <rect x="48.5" y="11.5" rx="0" ry="0" width="3" height="9" fill="#fe718d">
      <animate attributeName="opacity" values="1;0" keyTimes="0;1" dur="1.282051282051282s" begin="-1.037851037851038s" repeatCount="indefinite"></animate>
    </rect>
  </g>
  <g transform="rotate(68.57142857142857 50 50)">
    <rect x="48.5" y="11.5" rx="0" ry="0" width="3" height="9" fill="#fe718d">
      <animate attributeName="opacity" values="1;0" keyTimes="0;1" dur="1.282051282051282s" begin="-0.9768009768009769s" repeatCount="indefinite"></animate>
    </rect>
  </g>
  <g transform="rotate(85.71428571428571 50 50)">
    <rect x="48.5" y="11.5" rx="0" ry="0" width="3" height="9" fill="#fe718d">
      <animate attributeName="opacity" values="1;0" keyTimes="0;1" dur="1.282051282051282s" begin="-0.9157509157509158s" repeatCount="indefinite"></animate>
    </rect>
  </g>
  <g transform="rotate(102.85714285714286 50 50)">
    <rect x="48.5" y="11.5" rx="0" ry="0" width="3" height="9" fill="#fe718d">
      <animate attributeName="opacity" values="1;0" keyTimes="0;1" dur="1.282051282051282s" begin="-0.8547008547008548s" repeatCount="indefinite"></animate>
    </rect>
  </g>
  <g transform="rotate(120 50 50)">
    <rect x="48.5" y="11.5" rx="0" ry="0" width="3" height="9" fill="#fe718d">
      <animate attributeName="opacity" values="1;0" keyTimes="0;1" dur="1.282051282051282s" begin="-0.7936507936507937s" repeatCount="indefinite"></animate>
    </rect>
  </g>
  <g transform="rotate(137.14285714285714 50 50)">
    <rect x="48.5" y="11.5" rx="0" ry="0" width="3" height="9" fill="#fe718d">
      <animate attributeName="opacity" values="1;0" keyTimes="0;1" dur="1.282051282051282s" begin="-0.7326007326007327s" repeatCount="indefinite"></animate>
    </rect>
  </g>
  <g transform="rotate(154.28571428571428 50 50)">
    <rect x="48.5" y="11.5" rx="0" ry="0" width="3" height="9" fill="#fe718d">
      <animate attributeName="opacity" values="1;0" keyTimes="0;1" dur="1.282051282051282s" begin="-0.6715506715506716s" repeatCount="indefinite"></animate>
    </rect>
  </g>
  <g transform="rotate(171.42857142857142 50 50)">
    <rect x="48.5" y="11.5" rx="0" ry="0" width="3" height="9" fill="#fe718d">
      <animate attributeName="opacity" values="1;0" keyTimes="0;1" dur="1.282051282051282s" begin="-0.6105006105006106s" repeatCount="indefinite"></animate>
    </rect>
  </g>
  <g transform="rotate(188.57142857142858 50 50)">
    <rect x="48.5" y="11.5" rx="0" ry="0" width="3" height="9" fill="#fe718d">
      <animate attributeName="opacity" values="1;0" keyTimes="0;1" dur="1.282051282051282s" begin="-0.5494505494505495s" repeatCount="indefinite"></animate>
    </rect>
  </g>
  <g transform="rotate(205.71428571428572 50 50)">
    <rect x="48.5" y="11.5" rx="0" ry="0" width="3" height="9" fill="#fe718d">
      <animate attributeName="opacity" values="1;0" keyTimes="0;1" dur="1.282051282051282s" begin="-0.48840048840048844s" repeatCount="indefinite"></animate>
    </rect>
  </g>
  <g transform="rotate(222.85714285714286 50 50)">
    <rect x="48.5" y="11.5" rx="0" ry="0" width="3" height="9" fill="#fe718d">
      <animate attributeName="opacity" values="1;0" keyTimes="0;1" dur="1.282051282051282s" begin="-0.4273504273504274s" repeatCount="indefinite"></animate>
    </rect>
  </g>
  <g transform="rotate(240 50 50)">
    <rect x="48.5" y="11.5" rx="0" ry="0" width="3" height="9" fill="#fe718d">
      <animate attributeName="opacity" values="1;0" keyTimes="0;1" dur="1.282051282051282s" begin="-0.36630036630036633s" repeatCount="indefinite"></animate>
    </rect>
  </g>
  <g transform="rotate(257.14285714285717 50 50)">
    <rect x="48.5" y="11.5" rx="0" ry="0" width="3" height="9" fill="#fe718d">
      <animate attributeName="opacity" values="1;0" keyTimes="0;1" dur="1.282051282051282s" begin="-0.3052503052503053s" repeatCount="indefinite"></animate>
    </rect>
  </g>
  <g transform="rotate(274.2857142857143 50 50)">
    <rect x="48.5" y="11.5" rx="0" ry="0" width="3" height="9" fill="#fe718d">
      <animate attributeName="opacity" values="1;0" keyTimes="0;1" dur="1.282051282051282s" begin="-0.24420024420024422s" repeatCount="indefinite"></animate>
    </rect>
  </g>
  <g transform="rotate(291.42857142857144 50 50)">
    <rect x="48.5" y="11.5" rx="0" ry="0" width="3" height="9" fill="#fe718d">
      <animate attributeName="opacity" values="1;0" keyTimes="0;1" dur="1.282051282051282s" begin="-0.18315018315018317s" repeatCount="indefinite"></animate>
    </rect>
  </g>
  <g transform="rotate(308.57142857142856 50 50)">
    <rect x="48.5" y="11.5" rx="0" ry="0" width="3" height="9" fill="#fe718d">
      <animate attributeName="opacity" values="1;0" keyTimes="0;1" dur="1.282051282051282s" begin="-0.12210012210012211s" repeatCount="indefinite"></animate>
    </rect>
  </g>
  <g transform="rotate(325.7142857142857 50 50)">
    <rect x="48.5" y="11.5" rx="0" ry="0" width="3" height="9" fill="#fe718d">
      <animate attributeName="opacity" values="1;0" keyTimes="0;1" dur="1.282051282051282s" begin="-0.061050061050061055s" repeatCount="indefinite"></animate>
    </rect>
  </g>
  <g transform="rotate(342.85714285714283 50 50)">
    <rect x="48.5" y="11.5" rx="0" ry="0" width="3" height="9" fill="#fe718d">
      <animate attributeName="opacity" values="1;0" keyTimes="0;1" dur="1.282051282051282s" begin="0s" repeatCount="indefinite"></animate>
    </rect>
  </g>
  <!-- [ldio] generated by https://loading.io/ -->
</svg>